<svg width="1152" height="260" viewBox="0 0 1152 260" fill="none" xmlns="http://www.w3.org/2000/svg">
<g clip-path="url(#clip0_150_1184)">
<g opacity="0.56">
<path d="M653.276 283.921L742.804 401.443C773.763 442.083 823.713 464.07 874.597 459.452L1079.07 440.907C1106.02 438.46 1118.72 407.028 1101.03 386.519L1000.13 269.534C969.724 234.284 924.359 215.222 877.92 218.187L877.912 218.19L877.857 218.193L677.409 231.06C650.915 232.761 637.194 262.813 653.276 283.921ZM653.276 283.921L653.003 284.128" stroke="url(#paint0_linear_150_1184)" stroke-width="0.727536"/>
<path d="M678.172 256.934L767.7 374.457C798.659 415.096 848.609 437.083 899.493 432.465L1103.97 413.92C1130.92 411.473 1143.61 380.042 1125.92 359.533L1025.03 242.548C994.62 207.297 949.255 188.235 902.816 191.2L902.808 191.203L902.753 191.207L702.305 204.073C675.811 205.774 662.09 235.826 678.172 256.934ZM678.172 256.934L677.899 257.141" stroke="url(#paint1_linear_150_1184)" stroke-width="0.727536"/>
<path d="M703.067 229.947L792.596 347.47C823.554 388.109 873.505 410.097 924.389 405.478L1128.86 386.933C1155.82 384.486 1168.51 353.055 1150.82 332.546L1049.92 215.561C1019.52 180.31 974.15 161.248 927.711 164.213L927.703 164.216L927.648 164.22L727.2 177.087C700.706 178.787 686.985 208.839 703.067 229.947ZM703.067 229.947L702.795 230.155" stroke="url(#paint2_linear_150_1184)" stroke-width="0.727536"/>
<path d="M727.963 202.96L817.492 320.483C848.45 361.123 898.401 383.11 949.285 378.492L1153.76 359.946C1180.71 357.499 1193.4 326.068 1175.71 305.559L1074.82 188.574C1044.41 153.323 999.046 134.261 952.607 137.226L952.599 137.23L952.544 137.233L752.096 150.1C725.602 151.8 711.881 181.853 727.963 202.96ZM727.963 202.96L727.691 203.168" stroke="url(#paint3_linear_150_1184)" stroke-width="0.727536"/>
<path d="M752.858 175.974L842.387 293.496C873.345 334.136 923.296 356.123 974.18 351.505L1178.66 332.959C1205.61 330.513 1218.3 299.081 1200.61 278.572L1099.71 161.587C1069.31 126.336 1023.94 107.275 977.502 110.239L977.494 110.243L977.439 110.246L776.991 123.113C750.497 124.813 736.776 154.866 752.858 175.974ZM752.858 175.974L752.586 176.181" stroke="url(#paint4_linear_150_1184)" stroke-width="0.727536"/>
<path d="M777.753 148.987L867.282 266.51C898.24 307.149 948.191 329.136 999.075 324.518L1203.55 305.973C1230.5 303.526 1243.19 272.095 1225.5 251.586L1124.61 134.6C1094.2 99.3496 1048.84 80.2878 1002.4 83.2526L1002.39 83.2561L1002.33 83.2595L801.887 96.1262C775.393 97.8266 761.672 127.879 777.753 148.987ZM777.753 148.987L777.481 149.194" stroke="url(#paint5_linear_150_1184)" stroke-width="0.727536"/>
<path d="M802.649 122L892.178 239.523C923.136 280.162 973.087 302.149 1023.97 297.531L1228.45 278.986C1255.4 276.539 1268.09 245.108 1250.4 224.599L1149.5 107.614C1119.1 72.3629 1073.73 53.3011 1027.29 56.2659L1027.29 56.2693L1027.23 56.2728L826.782 69.1394C800.288 70.8399 786.567 100.892 802.649 122ZM802.649 122L802.377 122.208" stroke="url(#paint6_linear_150_1184)" stroke-width="0.727536"/>
<path d="M827.544 95.0131L917.073 212.536C948.031 253.175 997.982 275.163 1048.87 270.544L1253.34 251.999C1280.29 249.552 1292.98 218.121 1275.3 197.612L1174.4 80.6268C1143.99 45.376 1098.63 26.3142 1052.19 29.279L1052.18 29.2824L1052.13 29.2859L851.678 42.1525C825.184 43.853 811.463 73.9054 827.544 95.0131ZM827.544 95.0131L827.272 95.2208" stroke="url(#paint7_linear_150_1184)" stroke-width="0.727536"/>
</g>
</g>
<defs>
<linearGradient id="paint0_linear_150_1184" x1="927.311" y1="221.832" x2="825.014" y2="457.736" gradientUnits="userSpaceOnUse">
<stop offset="0.135" stop-color="#6769AE"/>
<stop offset="0.705" stop-color="#1C1C2B"/>
</linearGradient>
<linearGradient id="paint1_linear_150_1184" x1="952.207" y1="194.846" x2="849.91" y2="430.749" gradientUnits="userSpaceOnUse">
<stop offset="0.135" stop-color="#6769AE"/>
<stop offset="0.705" stop-color="#1C1C2B"/>
</linearGradient>
<linearGradient id="paint2_linear_150_1184" x1="977.103" y1="167.859" x2="874.805" y2="403.763" gradientUnits="userSpaceOnUse">
<stop offset="0.135" stop-color="#6769AE"/>
<stop offset="0.705" stop-color="#1C1C2B"/>
</linearGradient>
<linearGradient id="paint3_linear_150_1184" x1="1002" y1="140.872" x2="899.701" y2="376.776" gradientUnits="userSpaceOnUse">
<stop offset="0.135" stop-color="#6769AE"/>
<stop offset="0.705" stop-color="#1C1C2B"/>
</linearGradient>
<linearGradient id="paint4_linear_150_1184" x1="1026.89" y1="113.885" x2="924.596" y2="349.789" gradientUnits="userSpaceOnUse">
<stop offset="0.135" stop-color="#6769AE"/>
<stop offset="0.705" stop-color="#1C1C2B"/>
</linearGradient>
<linearGradient id="paint5_linear_150_1184" x1="1051.79" y1="86.8984" x2="949.492" y2="322.802" gradientUnits="userSpaceOnUse">
<stop offset="0.135" stop-color="#6769AE"/>
<stop offset="0.705" stop-color="#1C1C2B"/>
</linearGradient>
<linearGradient id="paint6_linear_150_1184" x1="1076.68" y1="59.9117" x2="974.387" y2="295.815" gradientUnits="userSpaceOnUse">
<stop offset="0.135" stop-color="#6769AE"/>
<stop offset="0.705" stop-color="#1C1C2B"/>
</linearGradient>
<linearGradient id="paint7_linear_150_1184" x1="1101.58" y1="32.9248" x2="999.283" y2="268.828" gradientUnits="userSpaceOnUse">
<stop offset="0.135" stop-color="#6769AE"/>
<stop offset="0.705" stop-color="#1C1C2B"/>
</linearGradient>
<clipPath id="clip0_150_1184">
<path d="M0 20C0 8.9543 8.95431 0 20 0H1132C1143.05 0 1152 8.95431 1152 20V240C1152 251.046 1143.05 260 1132 260H20C8.9543 260 0 251.046 0 240V20Z" fill="white"/>
</clipPath>
</defs>
</svg>

