<svg width="1392" height="338" viewBox="0 0 1392 338" fill="none" xmlns="http://www.w3.org/2000/svg">
<g clip-path="url(#clip0_147_1132)">
<rect width="1392" height="338" fill="url(#paint0_radial_147_1132)"/>
<g opacity="0.1">
<path fill-rule="evenodd" clip-rule="evenodd" d="M-235.65 296.41L48.3002 149.34C87.3902 129.1 130.25 118.97 173.14 119C213.9 118.97 254.69 128.12 292.29 146.49L513.23 254.42C549.32 272.05 566.19 304.72 566.19 342.26L567.86 566.16C567.98 586.86 559.55 609.02 538.8 620.77L237.7 791.24C153.64 838.83 50.4102 838.03 -32.8998 789.14L-269.29 650.42C-289.65 638.48 -297.06 617.13 -295.88 595.93C-292.78 540.39 -286.19 429.28 -284.06 373.74C-282.88 343.07 -267.12 312.72 -235.65 296.42V296.41Z" fill="#5245E9"/>
<path d="M74.992 205.182L-178.098 334.785C-211.905 352.096 -212.81 399.36 -179.687 417.913L2.77956 520.125C66.0254 555.555 143.467 555.981 207.103 521.242L462.226 381.995C496.211 363.442 494.977 314.955 460.087 298.105L263.158 202.992C203.65 174.255 133.799 175.061 75.0009 205.173L74.992 205.182Z" fill="#1D1D1E"/>
</g>
<g opacity="0.1">
<path fill-rule="evenodd" clip-rule="evenodd" d="M795.35 -118.59L1079.3 -265.66C1118.39 -285.9 1161.25 -296.03 1204.14 -296C1244.9 -296.03 1285.69 -286.88 1323.29 -268.51L1544.23 -160.58C1580.32 -142.95 1597.19 -110.28 1597.19 -72.7399L1598.86 151.16C1598.98 171.86 1590.55 194.02 1569.8 205.77L1268.7 376.24C1184.64 423.83 1081.41 423.03 998.1 374.14L761.71 235.42C741.35 223.48 733.94 202.13 735.12 180.93C738.22 125.39 744.81 14.2801 746.94 -41.2599C748.12 -71.9299 763.88 -102.28 795.35 -118.58V-118.59Z" fill="url(#paint1_linear_147_1132)"/>
<path d="M1105.99 -209.818L852.902 -80.2154C819.095 -62.9037 818.19 -15.6401 851.313 2.91258L1033.78 105.125C1097.03 140.555 1174.47 140.981 1238.1 106.242L1493.23 -33.005C1527.21 -51.5576 1525.98 -100.045 1491.09 -116.895L1294.16 -212.008C1234.65 -240.745 1164.8 -239.939 1106 -209.827L1105.99 -209.818Z" fill="#1D1D1E"/>
</g>
</g>
<defs>
<radialGradient id="paint0_radial_147_1132" cx="0" cy="0" r="1" gradientUnits="userSpaceOnUse" gradientTransform="translate(369.5 677.166) rotate(-43.2636) scale(1404.13 1427.37)">
<stop offset="0.27" stop-color="#453AFF" stop-opacity="0"/>
<stop offset="0.735" stop-color="#453AFF" stop-opacity="0.398619"/>
<stop offset="1" stop-color="#453AFF"/>
</radialGradient>
<linearGradient id="paint1_linear_147_1132" x1="1166.93" y1="-296" x2="1166.93" y2="411.378" gradientUnits="userSpaceOnUse">
<stop stop-color="#5245E9"/>
<stop offset="1" stop-color="#1C1851"/>
</linearGradient>
<clipPath id="clip0_147_1132">
<rect width="1392" height="338" fill="white"/>
</clipPath>
</defs>
</svg>
